<svg width="85" height="47" fill="none" xmlns="http://www.w3.org/2000/svg"><path d="M8.706 33.436a1.55 1.55 0 0 0-.874-.276c-.337 0-.629.123-.874.368l-.322.322c-.245.245-.521.506-.828.782a1.352 1.352 0 0 1-.92.368h-3.22c-.767 0-1.15-.383-1.15-1.15V3.72c0-.613.307-.92.92-.92h5.428c.613 0 .92.307.92.92v7.728c0 .583-.184 1.089-.552 1.518l-1.426 1.61c-.184.215-.245.399-.184.552.061.153.2.26.414.322.153.03.307.015.46-.046.153-.061.307-.169.46-.322a10.933 10.933 0 0 1 3.864-2.622c1.503-.644 3.205-.966 5.106-.966 2.852 0 5.213.598 7.084 1.794 1.901 1.165 3.327 2.637 4.278 4.416.95 1.779 1.41 3.71 1.38 5.796 0 2.085-.475 4.017-1.426 5.796-.92 1.779-2.33 3.266-4.232 4.462-1.901 1.165-4.263 1.748-7.084 1.748-2.821 0-5.229-.69-7.222-2.07Zm5.796-3.22c1.503 0 2.745-.322 3.726-.966 1.012-.675 1.763-1.503 2.254-2.484a7.03 7.03 0 0 0 .782-3.266c0-1.165-.26-2.239-.782-3.22-.49-1.012-1.242-1.84-2.254-2.484-.981-.675-2.223-1.012-3.726-1.012-2.024 0-3.65.613-4.876 1.84-1.227 1.227-1.84 2.852-1.84 4.876 0 2.024.613 3.65 1.84 4.876 1.227 1.227 2.852 1.84 4.876 1.84Zm16.338-25.3c0-1.319.399-2.377 1.196-3.174C32.834.914 33.922.5 35.302.5c1.319 0 2.377.414 3.174 1.242.828.797 1.242 1.855 1.242 3.174 0 1.38-.414 2.469-1.242 3.266-.797.797-1.855 1.196-3.174 1.196-1.38 0-2.468-.399-3.266-1.196-.797-.797-1.196-1.886-1.196-3.266Zm7.912 29.164c0 .613-.306.92-.92.92h-5.428c-.613 0-.92-.307-.92-.92V12.92c0-.613.307-.92.92-.92h5.428c.614 0 .92.307.92.92v21.16Zm11.26 0c0 .613-.306.92-.92.92h-5.427c-.614 0-.92-.307-.92-.92V3.72c0-.613.306-.92.92-.92h5.428c.613 0 .92.307.92.92v30.36Zm10.288 0c0 .613-.307.92-.92.92h-5.428c-.614 0-.92-.307-.92-.92V3.72c0-.613.306-.92.92-.92h5.428c.613 0 .92.307.92.92v30.36Zm17.325.552c0-.245.092-.445.276-.598l1.702-1.61c.214-.184.276-.353.184-.506-.062-.184-.2-.307-.414-.368-.338-.061-.644.061-.92.368-1.166 1.257-2.5 2.177-4.002 2.76-1.472.552-2.79.828-3.956.828-2.33 0-4.186-.675-5.566-2.024-1.38-1.38-2.07-3.588-2.07-6.624V13.15c0-.337.122-.613.368-.828.245-.215.536-.322.874-.322h4.876c.766 0 1.15.383 1.15 1.15v11.592c0 3.65.981 5.474 2.944 5.474.828 0 1.518-.2 2.07-.598a4.67 4.67 0 0 0 1.426-1.564 6.982 6.982 0 0 0 .782-2.162c.184-.797.276-1.595.276-2.392V13.15c0-.337.122-.613.368-.828.245-.215.536-.322.874-.322h4.876c.766 0 1.15.383 1.15 1.15v21.022c0 1.81-.23 3.48-.69 5.014-.43 1.564-1.104 2.913-2.024 4.048-.89 1.165-2.04 2.07-3.45 2.714-1.38.644-3.036.966-4.968.966-1.779 0-3.466-.26-5.06-.782-1.595-.49-3.02-1.18-4.278-2.07-.583-.399-.614-.859-.092-1.38l3.082-3.036c.184-.184.383-.276.598-.276.276 0 .536.123.782.368 1.165 1.257 2.821 1.886 4.968 1.886 1.441 0 2.438-.506 2.99-1.518.582-.981.874-2.484.874-4.508v-.966Z" fill="url(#a)"/><defs><linearGradient id="a" x1="-1" y1="24" x2="105.333" y2="24" gradientUnits="userSpaceOnUse"><stop stop-color="#50FA7B"/><stop offset="1" stop-color="#8BE9FD"/></linearGradient></defs></svg>