<svg width="201" height="148" viewBox="0 0 201 148" fill="none" xmlns="http://www.w3.org/2000/svg">
<g clip-path="url(#clip0_57_127)">
<path opacity="0.2" d="M26.6005 74.9818C23.957 75.7834 21.4827 77.7242 20.8223 80.417C20.067 83.5115 21.8087 86.6309 22.0605 89.8083C22.8736 100.219 8.11844 107.564 10.2234 117.79C11.0592 121.856 14.4374 124.847 17.766 127.318C23.0985 131.264 29.015 134.75 35.5671 135.734C45.5119 137.229 55.9024 132.834 65.5685 135.611C73.365 137.853 79.3311 144.421 87.0739 146.844C92.9677 148.69 99.3176 147.963 105.44 147.215C108.742 146.813 112.201 146.349 114.865 144.361C119.818 140.659 120.13 133.35 123.446 128.111C128.568 120.033 139.798 118.446 149.215 120.016C158.631 121.587 167.775 125.452 177.315 125.137C179.354 125.068 181.443 124.791 183.222 123.786C185.384 122.566 186.845 120.416 188.137 118.289C196.211 104.943 200.643 89.699 200.988 74.0891C201.043 71.4067 200.948 68.6084 199.692 66.2408C198.103 63.2457 194.927 61.454 191.765 60.2485C184.173 57.3487 175.786 56.8743 168.347 53.6037C161.171 50.4491 155.36 44.9166 149.111 40.1753C136.659 30.7451 122.226 24.2933 106.912 21.3118C103.323 20.6159 99.5982 20.1187 96.0322 20.9224C91.9235 21.8483 88.3822 24.4188 85.198 27.1861C76.7267 34.5476 69.9373 43.6303 62.1305 51.6981C56.745 57.2619 50.8807 62.3377 44.6059 66.8664C41.7168 68.9563 38.6461 71.4378 35.4268 72.983C32.4799 74.3956 29.7167 74.0394 26.6005 74.9818Z" fill="#F9A826"/>
<path d="M64.3613 9.55707C64.3613 9.55707 56.3852 20.1892 62.0912 32.5819C67.7972 44.9746 52.1465 64.8862 52.1465 64.8862" stroke="#535461" stroke-width="2" stroke-miterlimit="10"/>
<path d="M67.9376 5.57806C67.304 8.31427 64.2725 9.9444 64.2725 9.9444C64.2725 9.9444 62.2708 7.13776 62.9043 4.40155C63.5379 1.66533 65.1743 -0.289992 66.5694 0.0352056C67.9644 0.360403 68.5711 2.84184 67.9376 5.57806Z" fill="#8ED16F"/>
<path d="M65.9014 5.10127C66.1006 4.24223 66.002 3.4851 65.6811 3.41016C65.3603 3.33523 64.9388 3.97088 64.7397 4.82991C64.5405 5.68895 64.6391 6.44609 64.9599 6.52102C65.2807 6.59595 65.7022 5.9603 65.9014 5.10127Z" fill="#8ED16F"/>
<path opacity="0.3" d="M65.9014 5.10127C66.1006 4.24223 66.002 3.4851 65.6811 3.41016C65.3603 3.33523 64.9388 3.97088 64.7397 4.82991C64.5405 5.68895 64.6391 6.44609 64.9599 6.52102C65.2807 6.59595 65.7022 5.9603 65.9014 5.10127Z" fill="black"/>
<path d="M66.5591 17.7346C63.9259 18.6874 60.915 17.018 60.915 17.018C60.915 17.018 62.1738 13.8053 64.8091 12.8546C67.4444 11.9039 69.9682 12.2332 70.4532 13.5713C70.9381 14.9094 69.1923 16.7818 66.5591 17.7346Z" fill="#8ED16F"/>
<path d="M65.8194 15.625C66.6454 15.3252 67.2242 14.8301 67.1122 14.5194C67.0002 14.2086 66.2398 14.1998 65.4138 14.4997C64.5878 14.7995 64.009 15.2946 64.121 15.6053C64.233 15.9161 64.9934 15.9249 65.8194 15.625Z" fill="#8ED16F"/>
<path opacity="0.3" d="M65.8194 15.625C66.6454 15.3252 67.2242 14.8301 67.1122 14.5194C67.0002 14.2086 66.2398 14.1998 65.4138 14.4997C64.5878 14.7995 64.009 15.2946 64.121 15.6053C64.233 15.9161 64.9934 15.9249 65.8194 15.625Z" fill="black"/>
<path d="M65.9462 27.4222C63.3129 28.375 60.3021 26.7055 60.3021 26.7055C60.3021 26.7055 61.5609 23.4929 64.1962 22.5422C66.8315 21.5915 69.3553 21.9208 69.8403 23.2589C70.3252 24.5969 68.5794 26.4715 65.9462 27.4222Z" fill="#8ED16F"/>
<path d="M65.2372 25.459C66.064 25.1603 66.6438 24.6659 66.5322 24.3548C66.4206 24.0438 65.6599 24.0338 64.8331 24.3326C64.0064 24.6313 63.4266 25.1257 63.5381 25.4368C63.6497 25.7478 64.4104 25.7578 65.2372 25.459Z" fill="#8ED16F"/>
<path opacity="0.3" d="M65.2372 25.459C66.064 25.1603 66.6438 24.6659 66.5322 24.3548C66.4206 24.0438 65.6599 24.0338 64.8331 24.3326C64.0064 24.6313 63.4266 25.1257 63.5381 25.4368C63.6497 25.7478 64.4104 25.7578 65.2372 25.459Z" fill="black"/>
<path d="M69.0231 38.7875C66.3898 39.7403 63.379 38.0709 63.379 38.0709C63.379 38.0709 64.6378 34.8582 67.2731 33.9075C69.9084 32.9568 72.4322 33.2861 72.9172 34.6242C73.4021 35.9623 71.6563 37.8409 69.0231 38.7875Z" fill="#8ED16F"/>
<path d="M68.3144 36.8294C69.1412 36.5306 69.721 36.0363 69.6094 35.7252C69.4979 35.4142 68.7372 35.4042 67.9104 35.703C67.0836 36.0017 66.5038 36.4961 66.6154 36.8072C66.727 37.1182 67.4877 37.1282 68.3144 36.8294Z" fill="#8ED16F"/>
<path opacity="0.3" d="M68.3144 36.8294C69.1412 36.5306 69.721 36.0363 69.6094 35.7252C69.4979 35.4142 68.7372 35.4042 67.9104 35.703C67.0836 36.0017 66.5038 36.4961 66.6154 36.8072C66.727 37.1182 67.4877 37.1282 68.3144 36.8294Z" fill="black"/>
<path d="M67.0214 49.1814C64.3881 50.1342 61.3773 48.4648 61.3773 48.4648C61.3773 48.4648 62.6361 45.2521 65.2714 44.3014C67.9067 43.3507 70.4305 43.68 70.9155 45.0181C71.4004 46.3562 69.6566 48.2307 67.0214 49.1814Z" fill="#8ED16F"/>
<path d="M66.3183 47.0467C67.1443 46.7468 67.7232 46.2518 67.6112 45.941C67.4992 45.6303 66.7388 45.6214 65.9128 45.9213C65.0868 46.2212 64.508 46.7162 64.62 47.027C64.7319 47.3377 65.4923 47.3466 66.3183 47.0467Z" fill="#8ED16F"/>
<path opacity="0.3" d="M66.3183 47.0467C67.1443 46.7468 67.7232 46.2518 67.6112 45.941C67.4992 45.6303 66.7388 45.6214 65.9128 45.9213C65.0868 46.2212 64.508 46.7162 64.62 47.027C64.7319 47.3377 65.4923 47.3466 66.3183 47.0467Z" fill="black"/>
<path d="M54.6703 20.4874C56.6143 22.509 60.0503 22.3516 60.0503 22.3516C60.0503 22.3516 60.333 18.9112 58.389 16.8896C56.4451 14.8679 54.0368 14.0353 53.0091 15.0254C51.9814 16.0155 52.7264 18.4658 54.6703 20.4874Z" fill="#8ED16F"/>
<path d="M57.7087 19.77C57.9457 19.5404 57.6431 18.8398 57.0328 18.2053C56.4224 17.5707 55.7356 17.2424 55.4986 17.4721C55.2616 17.7017 55.5643 18.4022 56.1746 19.0368C56.7849 19.6713 57.4717 19.9996 57.7087 19.77Z" fill="#8ED16F"/>
<path opacity="0.3" d="M57.7087 19.77C57.9457 19.5404 57.6431 18.8398 57.0328 18.2053C56.4224 17.5707 55.7356 17.2424 55.4986 17.4721C55.2616 17.7017 55.5643 18.4022 56.1746 19.0368C56.7849 19.6713 57.4717 19.9996 57.7087 19.77Z" fill="black"/>
<path d="M53.5539 52.5908C55.4978 54.6124 58.9338 54.455 58.9338 54.455C58.9338 54.455 59.2165 51.0146 57.2726 48.9929C55.3286 46.9713 52.9203 46.1387 51.8926 47.1288C50.8649 48.1188 51.6099 50.5692 53.5539 52.5908Z" fill="#8ED16F"/>
<path d="M56.5894 51.8762C56.8264 51.6466 56.5238 50.9461 55.9135 50.3115C55.3032 49.6769 54.6163 49.3487 54.3793 49.5783C54.1424 49.8079 54.445 50.5084 55.0553 51.143C55.6656 51.7776 56.3525 52.1058 56.5894 51.8762Z" fill="#8ED16F"/>
<path opacity="0.3" d="M56.5894 51.8762C56.8264 51.6466 56.5238 50.9461 55.9135 50.3115C55.3032 49.6769 54.6163 49.3487 54.3793 49.5783C54.1424 49.8079 54.445 50.5084 55.0553 51.143C55.6656 51.7776 56.3525 52.1058 56.5894 51.8762Z" fill="black"/>
<path d="M56.1314 31.8341C58.6367 33.0893 61.8209 31.7844 61.8209 31.7844C61.8209 31.7844 60.9438 28.4475 58.4406 27.1923C55.9374 25.9371 53.3888 25.9495 52.7511 27.242C52.1135 28.5345 53.6261 30.5789 56.1314 31.8341Z" fill="#8ED16F"/>
<path d="M58.75 30.1343C58.897 29.8385 58.3789 29.2795 57.5926 28.8856C56.8063 28.4918 56.0497 28.4124 55.9026 28.7082C55.7556 29.004 56.2737 29.5631 57.06 29.9569C57.8463 30.3507 58.6029 30.4302 58.75 30.1343Z" fill="#8ED16F"/>
<path opacity="0.3" d="M58.75 30.1343C58.897 29.8385 58.3789 29.2795 57.5926 28.8856C56.8063 28.4918 56.0497 28.4124 55.9026 28.7082C55.7556 29.004 56.2737 29.5631 57.06 29.9569C57.8463 30.3507 58.6029 30.4302 58.75 30.1343Z" fill="black"/>
<path d="M57.1818 43.1373C59.6871 44.3925 62.8713 43.0876 62.8713 43.0876C62.8713 43.0876 61.9942 39.7507 59.491 38.4955C56.9878 37.2403 54.4392 37.2527 53.8015 38.5452C53.1639 39.8377 54.6868 41.8945 57.1818 43.1373Z" fill="#8ED16F"/>
<path d="M59.8012 41.439C59.9483 41.1432 59.4301 40.5841 58.6439 40.1903C57.8576 39.7965 57.101 39.7171 56.9539 40.0129C56.8068 40.3087 57.325 40.8677 58.1113 41.2616C58.8975 41.6554 59.6542 41.7348 59.8012 41.439Z" fill="#8ED16F"/>
<path opacity="0.3" d="M59.8012 41.439C59.9483 41.1432 59.4301 40.5841 58.6439 40.1903C57.8576 39.7965 57.101 39.7171 56.9539 40.0129C56.8068 40.3087 57.325 40.8677 58.1113 41.2616C58.8975 41.6554 59.6542 41.7348 59.8012 41.439Z" fill="black"/>
<path d="M25.9464 32.41C25.9464 32.41 40.5137 47.0314 32.2901 68.7285C24.0664 90.4256 46.3869 126.506 46.3869 126.506C46.3869 126.506 46.1475 126.471 45.7038 126.392C15.7808 121.091 0.922503 86.7448 17.5556 61.2303C23.7321 51.7437 28.819 40.6165 25.9464 32.41Z" fill="#8ED16F"/>
<path d="M0 91.5482C0 91.5482 16.6227 88.8907 18.1375 103.844C19.6522 118.796 50.1014 120.87 50.1014 120.87C50.1014 120.87 49.8951 121.007 49.5298 121.251C24.3883 137.821 0.35495 131.802 3.97666 109.807C5.32629 101.627 5.21486 93.4145 0 91.5482Z" fill="#8ED16F"/>
<g opacity="0.3">
<path opacity="0.3" d="M0 91.5482C0 91.5482 16.6227 88.8907 18.1375 103.844C19.6522 118.796 50.1014 120.87 50.1014 120.87C50.1014 120.87 49.8951 121.007 49.5298 121.251C24.3883 137.821 0.35495 131.802 3.97666 109.807C5.32629 101.627 5.21486 93.4145 0 91.5482Z" fill="white"/>
</g>
<path d="M21.7386 91.3639C24.2631 91.3639 26.3096 86.0046 26.3096 79.3937C26.3096 72.7828 24.2631 67.4236 21.7386 67.4236C19.2141 67.4236 17.1676 72.7828 17.1676 79.3937C17.1676 86.0046 19.2141 91.3639 21.7386 91.3639Z" fill="#8ED16F"/>
<path opacity="0.3" d="M21.7386 91.3639C24.2631 91.3639 26.3096 86.0046 26.3096 79.3937C26.3096 72.7828 24.2631 67.4236 21.7386 67.4236C19.2141 67.4236 17.1676 72.7828 17.1676 79.3937C17.1676 86.0046 19.2141 91.3639 21.7386 91.3639Z" fill="black"/>
<path d="M21.3208 122.867C22.5241 121.659 21.3285 118.501 18.6505 115.813C15.9724 113.125 12.8261 111.925 11.6228 113.133C10.4196 114.341 11.6152 117.499 14.2932 120.187C16.9712 122.875 20.1176 124.075 21.3208 122.867Z" fill="#8ED16F"/>
<path opacity="0.3" d="M21.3208 122.867C22.5241 121.659 21.3285 118.501 18.6505 115.813C15.9724 113.125 12.8261 111.925 11.6228 113.133C10.4196 114.341 11.6152 117.499 14.2932 120.187C16.9712 122.875 20.1176 124.075 21.3208 122.867Z" fill="black"/>
<path d="M149.386 54.9853H41.1803C39.8727 54.9853 38.6187 55.5066 37.6942 56.4346C36.7696 57.3626 36.2502 58.6213 36.2502 59.9337V123.592C36.2502 124.904 36.7696 126.163 37.6942 127.091C38.6187 128.019 39.8727 128.54 41.1803 128.54H149.386C150.693 128.54 151.947 128.019 152.872 127.091C153.797 126.163 154.316 124.904 154.316 123.592V59.9337C154.316 58.6213 153.797 57.3626 152.872 56.4346C151.947 55.5066 150.693 54.9853 149.386 54.9853Z" fill="url(#paint0_linear_57_127)"/>
<path d="M147.805 55.8511H42.759C39.9313 55.8511 37.639 58.1519 37.639 60.99V122.535C37.639 125.373 39.9313 127.674 42.759 127.674H147.805C150.633 127.674 152.925 125.373 152.925 122.535V60.99C152.925 58.1519 150.633 55.8511 147.805 55.8511Z" fill="#F9A826"/>
<path d="M152.925 68.4199H37.639V81.5872H152.925V68.4199Z" fill="#F9A826"/>
<path opacity="0.3" d="M152.925 68.4199H37.639V81.5872H152.925V68.4199Z" fill="black"/>
<path d="M141.994 91.3639H48.5723V97.7477H141.994V91.3639Z" fill="#D6D6E3"/>
<path d="M56.3233 122.887C61.3734 122.887 65.4674 118.778 65.4674 113.709C65.4674 108.64 61.3734 104.531 56.3233 104.531C51.2732 104.531 47.1793 108.64 47.1793 113.709C47.1793 118.778 51.2732 122.887 56.3233 122.887Z" fill="#F9A826"/>
<path opacity="0.3" d="M56.3233 122.887C61.3734 122.887 65.4674 118.778 65.4674 113.709C65.4674 108.64 61.3734 104.531 56.3233 104.531C51.2732 104.531 47.1793 108.64 47.1793 113.709C47.1793 118.778 51.2732 122.887 56.3233 122.887Z" fill="black"/>
<path d="M146.371 38.1413C146.519 38.6097 146.832 39.0076 147.252 39.2598C149.149 40.5171 153.272 40.2499 153.767 40.2499C153.872 40.2499 154.011 40.4384 154.163 40.7553C154.892 42.2632 156.021 46.6834 156.097 47.6776C156.198 48.8811 157.312 54.513 159.137 56.6112C159.192 56.6755 159.248 56.7355 159.302 56.7915C161.091 58.5956 163.19 56.6112 163.19 56.6112L163.491 55.5611C163.406 55.9754 163.311 56.458 163.217 56.9986C163.169 57.2699 163.122 57.5578 163.076 57.854C162.804 59.5231 162.662 61.2107 162.649 62.9019C162.644 63.5159 162.671 64.1298 162.727 64.7412C162.744 64.911 162.763 65.0788 162.785 65.2424C162.878 65.9872 162.924 66.7372 162.921 67.4878C162.905 71.9452 161.772 77.4902 161.772 77.4902L161.815 77.4757C161.788 77.6144 161.772 77.6828 161.772 77.6828L161.838 77.6621C161.806 77.8678 161.776 78.0784 161.747 78.2938C161.363 81.0901 161.143 84.5699 161.037 86.5791C160.983 87.6389 161.03 88.7016 161.178 89.7524L163.192 103.984V110.613C163.185 111.617 163.307 112.618 163.555 113.591C164.211 116.095 163.671 124.836 163.367 128.983C163.283 130.114 163.217 130.905 163.198 131.133V131.202L163.256 131.179C163.256 131.226 163.256 131.251 163.256 131.251C163.342 131.214 163.432 131.188 163.524 131.173C162.725 132.415 161.279 134.47 160.166 134.816C159.511 135.016 158.928 135.404 158.489 135.932L158.46 135.972L158.419 136.03C158.281 136.215 158.197 136.434 158.177 136.664C158.161 136.624 158.149 136.583 158.14 136.541C158.055 137.003 158.332 137.426 159.201 137.631C159.707 137.728 160.223 137.77 160.738 137.755C163.751 137.755 169.098 136.825 169.688 135.825V132.374L169.785 132.405V132.436L170.155 132.558L171.168 129.145C172.383 128.242 171.374 112.079 171.168 108.365C170.982 104.981 173.068 91.5171 173.438 89.1455L173.388 89.0854L173.444 88.7395C173.518 88.7936 173.587 88.8547 173.65 88.9218C173.772 89.0663 173.877 89.2232 173.966 89.3899C174.141 89.6863 174.29 89.9967 174.414 90.3178C176.453 95.4216 177.371 110.016 177.371 111.325V125.05C177.367 126.404 177.555 127.752 177.928 129.054C178.116 129.739 178.26 130.434 178.362 131.137C178.405 131.413 178.442 131.686 178.477 131.947C178.512 132.208 178.547 132.507 178.574 132.751C178.574 132.815 178.589 132.877 178.595 132.935C178.601 132.993 178.595 132.991 178.595 133.02C178.651 133.561 178.68 133.915 178.68 133.915C178.687 133.885 178.701 133.858 178.721 133.834L178.731 133.965C178.746 133.915 178.773 133.871 178.812 133.836C178.896 133.754 178.987 133.679 179.084 133.613V135.357L179.034 135.319V135.62C181.135 137.21 184.555 137.691 187.18 137.672C188.882 137.672 190.261 137.465 190.74 137.225C191.425 136.887 191.049 136.1 190.426 135.497C189.943 135.029 189.314 134.669 188.915 134.715C188.251 134.787 185.979 132.204 184.788 130.789L184.922 130.729L185.112 130.646V107.762C185.112 107.762 185.417 98.7274 186.327 89.7917C186.759 85.2874 186.228 80.7424 184.769 76.4607L184.74 76.3758L185.017 76.4193C185.31 76.4649 185.467 76.4918 185.467 76.4918C185.467 76.4918 185.467 76.4214 185.448 76.2846H185.467C185.467 76.2846 185.112 72.4092 185.108 67.5416C185.108 62.0236 185.572 55.296 187.493 51.4889C188.6 49.2974 188.969 47.5534 188.938 46.178C188.986 44.9678 188.639 43.7749 187.949 42.781C187.66 42.381 187.267 42.0685 186.812 41.878L186.773 41.8552H186.753C186.421 41.7204 186.066 41.6501 185.708 41.648H181.558C181.078 41.6484 180.606 41.5235 180.188 41.2856L178.564 40.3617C178.023 39.1749 177.945 37.7042 178.06 36.3247C178.06 36.215 178.081 36.1052 178.091 35.9975L178.209 35.8732C178.3 35.7758 178.384 35.6661 178.467 35.5729C178.465 35.6546 178.459 35.7362 178.448 35.8173C178.428 35.9478 178.393 36.0244 178.337 36.041C179.224 35.925 180.215 35.7489 180.76 35.0612C180.782 35.0343 180.803 35.0053 180.824 34.9763C180.985 34.7147 181.118 34.4371 181.222 34.1478C181.298 33.9501 181.4 33.7635 181.525 33.5927C181.662 33.4145 181.839 33.2695 181.986 33.0997L182.01 33.0707C182.532 32.4493 182.561 31.5586 182.567 30.7467C182.578 28.7748 182.52 26.604 181.205 25.1251C180.114 23.8947 178.372 23.4287 176.719 23.3748C175.066 23.321 173.417 23.6193 171.766 23.6275C170.644 23.6275 169.29 23.6089 168.671 24.541C168.367 24.9988 168.33 25.5974 168 26.0365C167.81 26.2892 167.519 26.5067 167.503 26.8215C167.501 26.9668 167.538 27.1099 167.61 27.2358V27.2503C168.01 28.0415 168.861 28.5345 169.748 28.6899C169.598 28.8711 169.46 29.0621 169.335 29.2615C168.794 30.1308 168.507 31.136 168.51 32.1614C168.51 32.2815 168.51 32.3996 168.522 32.5177C168.614 33.9103 169.233 35.2151 170.252 36.1652C170.235 36.2812 170.219 36.3972 170.2 36.5112L170.237 36.5443C170.354 36.6506 170.476 36.7514 170.602 36.8467L170.648 36.8819C170.648 36.9544 170.648 37.0269 170.648 37.0891C170.648 37.2092 170.648 37.3314 170.635 37.4495C170.623 37.5675 170.635 37.64 170.623 37.7353L170.596 37.7125L168.58 36.0223L165.338 33.0106C165.338 33.0106 157.232 27.0887 156.825 29.9036C156.776 30.4036 156.914 30.904 157.211 31.308C158.699 33.5865 163.815 35.5252 163.815 35.5252C163.815 35.5252 166.865 38.7627 168.906 42.2529C168.834 42.2922 168.762 42.3295 168.685 42.3647C166.869 43.2119 164.219 42.8535 164.219 42.8535C161.159 43.332 160.883 46.6979 160.899 48.0588C160.899 48.123 160.899 48.1851 160.899 48.241C160.899 48.297 160.899 48.3094 160.899 48.3405L156.838 38.7689L156.825 38.7399C156.693 38.4283 156.484 38.1552 156.219 37.946C155.953 37.7367 155.64 37.598 155.307 37.5427C152.591 37.0849 145.803 36.13 146.371 38.1413ZM163.373 131.144C163.433 131.129 163.493 131.118 163.553 131.11L163.534 131.139L163.373 131.144Z" fill="url(#paint1_linear_57_127)"/>
<path d="M183.665 129.186C183.665 129.186 187.512 134.039 188.401 133.94C189.291 133.84 191.361 135.821 190.178 136.425C188.996 137.03 182.188 137.416 178.828 134.841V130.961L183.665 129.186Z" fill="#ACA9C9"/>
<path d="M164.228 129.482C164.228 129.482 161.958 133.542 160.381 134.039C158.804 134.536 157.422 136.318 159.494 136.813C161.566 137.308 168.966 136.218 169.655 135.029V129.779L164.228 129.482Z" fill="#ACA9C9"/>
<path d="M161.378 89.5991L163.338 103.639V110.165C163.332 111.155 163.452 112.142 163.693 113.102C164.333 115.573 163.807 124.194 163.51 128.285C163.413 129.619 163.338 130.472 163.338 130.472C164.62 129.878 170.047 131.759 170.047 131.759L170.596 129.884L171.034 128.393C172.218 127.502 171.24 111.559 171.034 107.887C170.9 105.378 172.014 97.2464 172.728 92.3726C172.934 90.9952 173.101 89.887 173.203 89.2201C173.267 88.8058 173.302 88.5759 173.302 88.5759C173.519 88.7539 173.7 88.9727 173.834 89.2201C174.004 89.5128 174.15 89.819 174.269 90.1356C176.255 95.171 177.159 109.567 177.159 110.849V124.387C177.155 125.723 177.337 127.052 177.701 128.337C177.946 129.274 178.124 130.227 178.236 131.189C178.376 132.264 178.442 133.13 178.442 133.13C178.541 132.536 184.658 129.861 184.658 129.861V107.284C184.658 107.284 184.953 98.3774 185.842 89.5577C186.225 85.5459 185.839 81.4977 184.707 77.631C184.462 76.788 184.216 76.0734 184.004 75.5079C183.643 74.5448 183.385 74.0124 183.385 74.0124H163.235C162.897 74.0766 162.616 74.7602 162.362 75.7979C162.197 76.4939 162.053 77.3472 161.927 78.2835C161.553 81.0404 161.339 84.4726 161.235 86.4569C161.183 87.5065 161.231 88.5586 161.378 89.5991Z" fill="#618FD8"/>
<g opacity="0.1">
<path opacity="0.1" d="M184.303 129.926V107.348C184.303 107.348 184.598 98.4416 185.488 89.6219C186.377 80.8022 183.011 74.0746 183.011 74.0746H183.405C183.405 74.0746 186.759 80.8084 185.882 89.6219C185.005 98.4354 184.697 107.348 184.697 107.348V129.926C184.697 129.926 178.58 132.6 178.481 133.194C178.481 133.194 178.481 133.062 178.45 132.834C179.784 131.904 184.303 129.926 184.303 129.926Z" fill="black"/>
<path opacity="0.1" d="M163.931 130.41C163.744 130.414 163.56 130.452 163.388 130.522V130.423C163.568 130.405 163.75 130.4 163.931 130.41Z" fill="black"/>
<path opacity="0.1" d="M170.689 128.443C171.874 127.552 170.895 111.609 170.689 107.937C170.483 104.264 172.959 88.6277 172.959 88.6277C173.089 88.7282 173.203 88.8468 173.3 88.9798C172.936 91.3163 170.906 104.6 171.085 107.937C171.292 111.601 172.27 127.544 171.085 128.443L170.099 131.809L169.74 131.688L170.689 128.443Z" fill="black"/>
</g>
<path d="M165.41 49.5688L163.347 56.8971C163.347 56.8971 161.176 58.9684 159.401 56.8971C157.626 54.8258 156.532 49.2726 156.425 48.0836C156.318 46.8947 154.747 40.7553 154.155 40.7553C153.563 40.7553 147.644 41.1509 146.953 38.684C146.4 36.6997 153.008 37.6483 155.653 38.0937C155.979 38.1493 156.286 38.2868 156.544 38.4932C156.803 38.6996 157.005 38.9683 157.133 39.2743L161.19 48.9991C161.19 48.9991 163.338 46.4991 165.41 49.5688Z" fill="#F7C4A7"/>
<path d="M178.729 32.5363C178.729 32.5363 176.164 39.7652 179.42 42.3399C182.677 44.9145 167.775 45.6084 167.775 45.6084L169.798 43.6779C169.798 43.6779 171.228 37.9839 170.241 33.2302L178.729 32.5363Z" fill="#F7C4A7"/>
<path opacity="0.1" d="M175.572 42.3399C175.572 42.3399 178.186 41.6957 178.186 41.0039L180.504 42.3399H186.325C186.325 42.3399 190.568 44.7157 187.017 51.8472C183.465 58.9788 185.044 76.4959 185.044 76.4959C185.044 76.4959 172.416 74.2175 161.958 77.6849C161.958 77.6849 163.536 69.8615 162.944 65.4061C162.352 60.9507 163.931 54.7119 163.931 54.7119L164.818 50.9483C164.818 50.9483 164.768 47.427 161.118 49.2146C161.118 49.2146 160.575 44.115 164.325 43.5205C164.325 43.5205 168.658 44.115 169.948 41.936C169.948 41.9442 172.81 43.6282 175.572 42.3399Z" fill="black"/>
<path d="M175.572 42.1431C175.572 42.1431 178.186 41.4989 178.186 40.8071L179.885 41.7868C180.29 42.0202 180.75 42.143 181.218 42.1431H185.289C185.715 42.1419 186.135 42.2423 186.514 42.436C186.893 42.6298 187.221 42.9114 187.471 43.2575C188.405 44.5769 189.243 47.1785 187.017 51.6504C183.465 58.7799 185.044 76.2992 185.044 76.2992C185.044 76.2992 172.416 74.0207 161.958 77.4881C161.958 77.4881 163.536 69.6647 162.944 65.2093C162.352 60.7539 163.931 54.5296 163.931 54.5296L164.818 50.766C164.818 50.766 164.768 47.2447 161.118 49.0323C161.118 49.0323 160.589 44.0736 164.17 43.3652C164.269 43.343 164.372 43.336 164.473 43.3445C165.239 43.4252 168.807 43.6841 169.95 41.7433C169.948 41.7454 172.81 43.4294 175.572 42.1431Z" fill="#E14B5A"/>
<path opacity="0.1" d="M185.537 51.1533C185.537 51.1533 182.38 53.1335 177.249 51.1533C177.249 51.1533 171.626 49.082 169.849 45.0139C168.072 40.9459 178.826 45.7078 178.826 45.7078C178.826 45.7078 181.096 45.7078 181.785 45.2128C182.475 44.7177 187.312 48.9743 185.537 51.1533Z" fill="black"/>
<path d="M185.537 50.7577C185.537 50.7577 182.38 52.7379 177.249 50.7577C177.249 50.7577 171.626 48.6864 169.849 44.6183C168.072 40.5502 163.931 36.0948 163.931 36.0948C163.931 36.0948 156.728 33.3213 157.12 30.5499C157.513 27.7785 165.408 33.6196 165.408 33.6196L168.566 36.5899L178.826 45.3039C178.826 45.3039 181.096 45.3039 181.785 44.8089C182.475 44.3138 187.312 48.5787 185.537 50.7577Z" fill="#F7C4A7"/>
<path opacity="0.1" d="M170.146 33.5264L178.63 32.8325C178.194 34.1416 177.897 35.4935 177.745 36.8654C176.758 37.8919 175.41 38.4887 173.99 38.5274C172.569 38.5662 171.191 38.0437 170.15 37.0725C170.367 35.9003 170.365 34.6981 170.146 33.5264Z" fill="black"/>
<path d="M173.946 38.2304C176.942 38.2304 179.371 35.7923 179.371 32.7849C179.371 29.7774 176.942 27.3394 173.946 27.3394C170.949 27.3394 168.52 29.7774 168.52 32.7849C168.52 35.7923 170.949 38.2304 173.946 38.2304Z" fill="#F7C4A7"/>
<path opacity="0.1" d="M176.923 33.9676C176.606 33.4415 177.251 32.7559 177.039 32.18C176.843 31.6498 176.063 31.5586 175.801 31.0636C175.594 30.6638 175.801 30.1729 175.718 29.7317C175.601 29.1621 174.99 28.8079 174.41 28.7789C173.83 28.7499 173.271 28.9674 172.72 29.1538C171.822 29.4583 170.877 29.6924 169.936 29.5847C168.995 29.477 168.056 28.9633 167.637 28.1202C167.568 27.9974 167.532 27.8592 167.532 27.7184C167.548 27.4077 167.833 27.1944 168.017 26.9458C168.339 26.5129 168.376 25.9226 168.669 25.471C169.267 24.5514 170.582 24.5741 171.675 24.57C173.285 24.57 174.887 24.2676 176.496 24.3214C178.106 24.3753 179.798 24.8331 180.865 26.0469C182.144 27.5071 182.202 29.6447 182.192 31.5918C182.192 32.3934 182.159 33.2654 181.649 33.8847C181.501 34.0649 181.319 34.2141 181.177 34.3984C180.867 34.8127 180.784 35.3429 180.493 35.7634C179.978 36.5112 178.971 36.6934 178.073 36.8136C178.337 36.7784 178.118 35.0032 178.073 34.8396C177.899 34.0235 177.712 34.0401 176.923 33.9676Z" fill="black"/>
<path d="M176.923 33.7708C176.606 33.2447 177.251 32.5591 177.039 31.9833C176.843 31.453 176.063 31.3619 175.801 30.8668C175.594 30.467 175.801 29.9761 175.718 29.535C175.601 28.9653 174.99 28.6111 174.41 28.5821C173.83 28.5531 173.271 28.7706 172.72 28.9571C171.822 29.2615 170.877 29.4956 169.936 29.3879C168.995 29.2802 168.056 28.7665 167.637 27.9235C167.568 27.8007 167.532 27.6624 167.532 27.5216C167.548 27.2109 167.833 26.9976 168.017 26.749C168.339 26.3161 168.376 25.7258 168.669 25.2742C169.267 24.3546 170.582 24.3774 171.675 24.3732C173.285 24.3732 174.887 24.0708 176.496 24.1247C178.106 24.1785 179.798 24.6363 180.865 25.8501C182.144 27.3104 182.202 29.448 182.192 31.395C182.192 32.1966 182.159 33.0686 181.649 33.688C181.501 33.8682 181.319 34.0173 181.177 34.2016C180.867 34.6159 180.784 35.1462 180.493 35.5666C179.978 36.3144 178.971 36.4967 178.073 36.6168C178.337 36.5816 178.118 34.8065 178.073 34.6428C177.899 33.8164 177.712 33.8412 176.923 33.7708Z" fill="#281C1C"/>
<path opacity="0.1" d="M185.488 51.4019C185.488 51.4019 182.823 44.4692 180.751 44.2724C178.68 44.0756 184.697 44.2724 184.697 44.2724L186.67 47.8372L185.488 51.4019Z" fill="black"/>
<path d="M185.686 51.4019C185.686 51.4019 183.021 44.4692 180.95 44.2724C178.878 44.0756 184.895 44.2724 184.895 44.2724L186.868 47.8372L185.686 51.4019Z" fill="#E14B5A"/>
<path d="M178.228 131.206C178.368 132.281 178.434 133.147 178.434 133.147C178.533 132.552 184.65 129.878 184.65 129.878V128.269C184.494 128.263 184.338 128.27 184.183 128.291C182.997 128.451 181.897 129.029 180.881 129.646C180.024 130.211 179.138 130.732 178.228 131.206Z" fill="#618FD8"/>
<path opacity="0.3" d="M178.228 131.206C178.368 132.281 178.434 133.147 178.434 133.147C178.533 132.552 184.65 129.878 184.65 129.878V128.269C184.494 128.263 184.338 128.27 184.183 128.291C182.997 128.451 181.897 129.029 180.881 129.646C180.024 130.211 179.138 130.732 178.228 131.206Z" fill="black"/>
<path d="M163.338 130.472C164.62 129.878 170.047 131.759 170.047 131.759L170.596 129.884C169.649 129.692 168.708 129.451 167.783 129.165C167.352 129.04 166.93 128.884 166.52 128.697C166.247 128.551 165.966 128.419 165.679 128.304C164.971 128.059 164.234 128.163 163.508 128.285C163.413 129.619 163.338 130.472 163.338 130.472Z" fill="#618FD8"/>
<path opacity="0.3" d="M163.338 130.472C164.62 129.878 170.047 131.759 170.047 131.759L170.596 129.884C169.649 129.692 168.708 129.451 167.783 129.165C167.352 129.04 166.93 128.884 166.52 128.697C166.247 128.551 165.966 128.419 165.679 128.304C164.971 128.059 164.234 128.163 163.508 128.285C163.413 129.619 163.338 130.472 163.338 130.472Z" fill="black"/>
<path opacity="0.4" d="M190.125 136.117C190.207 136.081 190.28 136.028 190.339 135.959C190.398 135.891 190.44 135.81 190.463 135.723C190.5 135.86 190.486 136.005 190.423 136.132C190.361 136.259 190.255 136.359 190.125 136.413C188.94 137.008 182.134 137.403 178.774 134.828V134.532C182.134 137.107 188.94 136.711 190.125 136.117Z" fill="white"/>
<path opacity="0.4" d="M159.442 136.512C161.506 137.007 168.914 135.918 169.604 134.729V135.025C168.912 136.214 161.514 137.304 159.442 136.809C158.596 136.601 158.326 136.187 158.41 135.734C158.476 136.069 158.786 136.347 159.442 136.512Z" fill="white"/>
<path opacity="0.1" d="M171.477 64.3746C171.477 64.3746 169.306 63.6807 168.714 64.3746C168.122 65.0685 163.06 66.6945 163.06 66.6945" fill="black"/>
<path d="M146.914 37.1657H157.469V36.942H146.914V37.1657Z" fill="#8ED16F"/>
<path d="M146.914 37.3894H157.469V37.1657H146.914V37.3894Z" fill="#8ED16F"/>
<path opacity="0.1" d="M146.914 37.3894H157.469V37.1657H146.914V37.3894Z" fill="black"/>
<path d="M146.914 37.6131H157.469V37.3894H146.914V37.6131Z" fill="#8ED16F"/>
<path d="M146.914 37.8347H157.469V37.611H146.914V37.8347Z" fill="#8ED16F"/>
<path opacity="0.1" d="M146.914 37.8347H157.469V37.611H146.914V37.8347Z" fill="black"/>
<path d="M146.914 38.0584H157.469V37.8347H146.914V38.0584Z" fill="#8ED16F"/>
<path d="M146.914 38.2801H157.469V38.0564H146.914V38.2801Z" fill="#8ED16F"/>
<path opacity="0.1" d="M146.914 38.2801H157.469V38.0564H146.914V38.2801Z" fill="black"/>
<path d="M146.914 38.5038H157.469V38.2801H146.914V38.5038Z" fill="#8ED16F"/>
<path d="M146.914 38.7254H157.469V38.5017H146.914V38.7254Z" fill="#8ED16F"/>
<path opacity="0.1" d="M146.914 38.7254H157.469V38.5017H146.914V38.7254Z" fill="black"/>
<path d="M146.914 35.3844H157.469V35.1607H146.914V35.3844Z" fill="#8ED16F"/>
<path d="M154.38 30.0881L162.495 36.8628L162.638 36.6908L154.522 29.9161L154.38 30.0881Z" fill="#8ED16F"/>
<path d="M146.981 26.5238L155.096 33.2985L155.239 33.1265L147.123 26.3518L146.981 26.5238Z" fill="#8ED16F"/>
<path d="M146.914 35.606H157.469V35.3823H146.914V35.606Z" fill="#8ED16F"/>
<path opacity="0.1" d="M146.914 35.606H157.469V35.3823H146.914V35.606Z" fill="black"/>
<path d="M146.914 35.8318H157.469V35.6081H146.914V35.8318Z" fill="#8ED16F"/>
<path d="M146.914 36.0534H157.469V35.8297H146.914V36.0534Z" fill="#8ED16F"/>
<path opacity="0.1" d="M146.914 36.0534H157.469V35.8297H146.914V36.0534Z" fill="black"/>
<path d="M146.914 36.275H157.469V36.0513H146.914V36.275Z" fill="#8ED16F"/>
<path d="M146.914 36.4987H157.469V36.275H146.914V36.4987Z" fill="#8ED16F"/>
<path opacity="0.1" d="M146.914 36.4987H157.469V36.275H146.914V36.4987Z" fill="black"/>
<path d="M146.914 36.7204H157.469V36.4967H146.914V36.7204Z" fill="#8ED16F"/>
<path d="M146.914 36.9441H157.469V36.7204H146.914V36.9441Z" fill="#8ED16F"/>
<path opacity="0.1" d="M146.914 36.9441H157.469V36.7204H146.914V36.9441Z" fill="black"/>
<path d="M145.576 45.6297L149.358 46.3346L150.726 38.936L146.945 38.2311L145.576 45.6297Z" fill="#8ED16F"/>
<path d="M148.979 42.4509C149.138 41.5905 148.92 40.8283 148.492 40.7485C148.064 40.6687 147.588 41.3015 147.429 42.1619C147.269 43.0224 147.487 43.7845 147.916 43.8643C148.344 43.9441 148.82 43.3113 148.979 42.4509Z" fill="#8ED16F"/>
<path opacity="0.1" d="M148.979 42.4509C149.138 41.5905 148.92 40.8283 148.492 40.7485C148.064 40.6687 147.588 41.3015 147.429 42.1619C147.269 43.0224 147.487 43.7845 147.916 43.8643C148.344 43.9441 148.82 43.3113 148.979 42.4509Z" fill="black"/>
<path d="M146.223 61.2462L150.005 61.9511L151.374 54.5525L147.592 53.8475L146.223 61.2462Z" fill="#8ED16F"/>
<path d="M149.624 58.0657C149.783 57.2052 149.565 56.443 149.137 56.3633C148.709 56.2835 148.233 56.9163 148.074 57.7767C147.915 58.6371 148.133 59.3993 148.561 59.4791C148.989 59.5589 149.465 58.9261 149.624 58.0657Z" fill="#8ED16F"/>
<path opacity="0.1" d="M149.624 58.0657C149.783 57.2052 149.565 56.443 149.137 56.3633C148.709 56.2835 148.233 56.9163 148.074 57.7767C147.915 58.6371 148.133 59.3993 148.561 59.4791C148.989 59.5589 149.465 58.9261 149.624 58.0657Z" fill="black"/>
<path d="M132.544 22.8613L130.713 26.2569L137.307 29.8384L139.137 26.4427L132.544 22.8613Z" fill="#8ED16F"/>
<path d="M136.957 27.2561C137.165 26.8715 136.713 26.2193 135.946 25.7992C135.178 25.3791 134.387 25.3504 134.178 25.7349C133.969 26.1195 134.422 26.7717 135.189 27.1918C135.956 27.6119 136.748 27.6406 136.957 27.2561Z" fill="#8ED16F"/>
<path opacity="0.1" d="M136.957 27.2561C137.165 26.8715 136.713 26.2193 135.946 25.7992C135.178 25.3791 134.387 25.3504 134.178 25.7349C133.969 26.1195 134.422 26.7717 135.189 27.1918C135.956 27.6119 136.748 27.6406 136.957 27.2561Z" fill="black"/>
<path d="M118.066 89.8734L116.235 93.2691L122.829 96.8505L124.659 93.4549L118.066 89.8734Z" fill="#8ED16F"/>
<path d="M121.814 94.1615C122.021 93.7772 121.568 93.128 120.801 92.7115C120.034 92.295 119.245 92.2689 119.037 92.6532C118.83 93.0375 119.284 93.6867 120.051 94.1032C120.817 94.5197 121.607 94.5458 121.814 94.1615Z" fill="#8ED16F"/>
<path opacity="0.1" d="M121.814 94.1615C122.021 93.7772 121.568 93.128 120.801 92.7115C120.034 92.295 119.245 92.2689 119.037 92.6532C118.83 93.0375 119.284 93.6867 120.051 94.1032C120.817 94.5197 121.607 94.5458 121.814 94.1615Z" fill="black"/>
<path d="M109.207 34.5728L107.377 37.9684L113.97 41.5498L115.801 38.1542L109.207 34.5728Z" fill="#8ED16F"/>
<path d="M112.954 38.8577C113.161 38.4734 112.708 37.8242 111.941 37.4077C111.174 36.9912 110.385 36.9651 110.177 37.3495C109.97 37.7338 110.424 38.383 111.191 38.7995C111.957 39.216 112.747 39.2421 112.954 38.8577Z" fill="#8ED16F"/>
<path opacity="0.1" d="M112.954 38.8577C113.161 38.4734 112.708 37.8242 111.941 37.4077C111.174 36.9912 110.385 36.9651 110.177 37.3495C109.97 37.7338 110.424 38.383 111.191 38.7995C111.957 39.216 112.747 39.2421 112.954 38.8577Z" fill="black"/>
<path d="M120.31 22.8604L118.479 26.256L125.073 29.8375L126.903 26.4419L120.31 22.8604Z" fill="#8ED16F"/>
<path d="M124.056 27.1454C124.264 26.7611 123.81 26.1119 123.043 25.6954C122.276 25.2789 121.487 25.2528 121.28 25.6371C121.072 26.0214 121.526 26.6706 122.293 27.0872C123.06 27.5037 123.849 27.5297 124.056 27.1454Z" fill="#8ED16F"/>
<path opacity="0.1" d="M124.056 27.1454C124.264 26.7611 123.81 26.1119 123.043 25.6954C122.276 25.2789 121.487 25.2528 121.28 25.6371C121.072 26.0214 121.526 26.6706 122.293 27.0872C123.06 27.5037 123.849 27.5297 124.056 27.1454Z" fill="black"/>
<path d="M131.394 36.6802L127.57 37.0999L128.385 44.5804L132.209 44.1607L131.394 36.6802Z" fill="#8ED16F"/>
<path d="M130.011 42.2119C130.444 42.1644 130.718 41.4206 130.623 40.5507C130.528 39.6808 130.1 39.014 129.668 39.0615C129.235 39.109 128.961 39.8528 129.056 40.7227C129.15 41.5927 129.578 42.2594 130.011 42.2119Z" fill="#8ED16F"/>
<path opacity="0.1" d="M130.011 42.2119C130.444 42.1644 130.718 41.4206 130.623 40.5507C130.528 39.6808 130.1 39.014 129.668 39.0615C129.235 39.109 128.961 39.8528 129.056 40.7227C129.15 41.5927 129.578 42.2594 130.011 42.2119Z" fill="black"/>
<path d="M157.611 77.6422L153.787 78.0619L154.602 85.5424L158.426 85.1227L157.611 77.6422Z" fill="#8ED16F"/>
<path d="M156.23 83.1739C156.662 83.1264 156.936 82.3826 156.842 81.5127C156.747 80.6428 156.319 79.976 155.886 80.0235C155.454 80.071 155.18 80.8148 155.274 81.6847C155.369 82.5546 155.797 83.2214 156.23 83.1739Z" fill="#8ED16F"/>
<path opacity="0.1" d="M156.23 83.1739C156.662 83.1264 156.936 82.3826 156.842 81.5127C156.747 80.6428 156.319 79.976 155.886 80.0235C155.454 80.071 155.18 80.8148 155.274 81.6847C155.369 82.5546 155.797 83.2214 156.23 83.1739Z" fill="black"/>
<path d="M116.421 52.5708L114.59 55.9664L121.184 59.5479L123.015 56.1522L116.421 52.5708Z" fill="#8ED16F"/>
<path d="M120.167 56.8586C120.374 56.4743 119.92 55.8251 119.153 55.4086C118.387 54.9921 117.597 54.966 117.39 55.3504C117.183 55.7347 117.636 56.3839 118.403 56.8004C119.17 57.2169 119.959 57.243 120.167 56.8586Z" fill="#8ED16F"/>
<path opacity="0.1" d="M120.167 56.8586C120.374 56.4743 119.92 55.8251 119.153 55.4086C118.387 54.9921 117.597 54.966 117.39 55.3504C117.183 55.7347 117.636 56.3839 118.403 56.8004C119.17 57.2169 119.959 57.243 120.167 56.8586Z" fill="black"/>
<path d="M99.782 47.801L97.9513 51.1966L104.545 54.778L106.376 51.3824L99.782 47.801Z" fill="#8ED16F"/>
<path d="M104.076 52.3143C104.285 51.9297 103.833 51.2774 103.066 50.8574C102.298 50.4373 101.507 50.4085 101.298 50.7931C101.089 51.1776 101.542 51.8299 102.309 52.25C103.076 52.67 103.867 52.6988 104.076 52.3143Z" fill="#8ED16F"/>
<path opacity="0.1" d="M104.076 52.3143C104.285 51.9297 103.833 51.2774 103.066 50.8574C102.298 50.4373 101.507 50.4085 101.298 50.7931C101.089 51.1776 101.542 51.8299 102.309 52.25C103.076 52.67 103.867 52.6988 104.076 52.3143Z" fill="black"/>
<path d="M94.453 128.107L92.6223 131.503L99.2159 135.085L101.047 131.689L94.453 128.107Z" fill="#8ED16F"/>
<path d="M98.1995 132.393C98.4067 132.009 97.9531 131.36 97.1863 130.943C96.4195 130.527 95.6299 130.501 95.4227 130.885C95.2155 131.269 95.6691 131.919 96.4359 132.335C97.2027 132.752 97.9923 132.778 98.1995 132.393Z" fill="#8ED16F"/>
<path opacity="0.1" d="M98.1995 132.393C98.4067 132.009 97.9531 131.36 97.1863 130.943C96.4195 130.527 95.6299 130.501 95.4227 130.885C95.2155 131.269 95.6691 131.919 96.4359 132.335C97.2027 132.752 97.9923 132.778 98.1995 132.393Z" fill="black"/>
<path d="M89.6557 129.416L88.954 133.212L96.3255 134.585L97.0272 130.789L89.6557 129.416Z" fill="#8ED16F"/>
<path opacity="0.05" d="M89.6557 129.416L88.954 133.212L96.3255 134.585L97.0272 130.789L89.6557 129.416Z" fill="black"/>
<path d="M94.5353 132.338C94.6147 131.908 93.9842 131.43 93.1269 131.271C92.2697 131.111 91.5103 131.33 91.4309 131.76C91.3515 132.189 91.9821 132.667 92.8393 132.827C93.6966 132.986 94.4559 132.767 94.5353 132.338Z" fill="#8ED16F"/>
<path opacity="0.1" d="M94.5353 132.338C94.6147 131.908 93.9842 131.43 93.1269 131.271C92.2697 131.111 91.5103 131.33 91.4309 131.76C91.3515 132.189 91.9821 132.667 92.8393 132.827C93.6966 132.986 94.4559 132.767 94.5353 132.338Z" fill="black"/>
<path d="M90.3463 131.693L89.6447 135.489L97.0161 136.862L97.7178 133.065L90.3463 131.693Z" fill="#8ED16F"/>
<path d="M95.2239 134.614C95.3033 134.185 94.6728 133.707 93.8155 133.547C92.9582 133.388 92.1989 133.607 92.1195 134.036C92.0401 134.466 92.6707 134.944 93.5279 135.103C94.3852 135.263 95.1445 135.044 95.2239 134.614Z" fill="#8ED16F"/>
<path opacity="0.1" d="M95.2239 134.614C95.3033 134.185 94.6728 133.707 93.8155 133.547C92.9582 133.388 92.1989 133.607 92.1195 134.036C92.0401 134.466 92.6707 134.944 93.5279 135.103C94.3852 135.263 95.1445 135.044 95.2239 134.614Z" fill="black"/>
<path d="M102.231 137.867L100.4 141.263L106.994 144.844L108.824 141.449L102.231 137.867Z" fill="#8ED16F"/>
<path d="M105.979 142.153C106.187 141.769 105.733 141.12 104.966 140.703C104.199 140.287 103.41 140.261 103.202 140.645C102.995 141.029 103.449 141.678 104.216 142.095C104.983 142.511 105.772 142.537 105.979 142.153Z" fill="#8ED16F"/>
<path opacity="0.1" d="M105.979 142.153C106.187 141.769 105.733 141.12 104.966 140.703C104.199 140.287 103.41 140.261 103.202 140.645C102.995 141.029 103.449 141.678 104.216 142.095C104.983 142.511 105.772 142.537 105.979 142.153Z" fill="black"/>
<path d="M97.4349 139.173L96.7333 142.97L104.105 144.342L104.806 140.546L97.4349 139.173Z" fill="#8ED16F"/>
<path opacity="0.05" d="M97.4349 139.173L96.7333 142.97L104.105 144.342L104.806 140.546L97.4349 139.173Z" fill="black"/>
<path d="M102.312 142.095C102.392 141.665 101.761 141.188 100.904 141.028C100.047 140.868 99.2875 141.087 99.2081 141.517C99.1286 141.947 99.7592 142.424 100.616 142.584C101.474 142.743 102.233 142.525 102.312 142.095Z" fill="#8ED16F"/>
<path opacity="0.1" d="M102.312 142.095C102.392 141.665 101.761 141.188 100.904 141.028C100.047 140.868 99.2875 141.087 99.2081 141.517C99.1286 141.947 99.7592 142.424 100.616 142.584C101.474 142.743 102.233 142.525 102.312 142.095Z" fill="black"/>
<path d="M98.1251 141.452L97.4235 145.249L104.795 146.621L105.497 142.825L98.1251 141.452Z" fill="#8ED16F"/>
<path d="M103.005 144.374C103.084 143.944 102.454 143.467 101.596 143.307C100.739 143.147 99.9798 143.366 99.9004 143.796C99.821 144.225 100.452 144.703 101.309 144.863C102.166 145.022 102.925 144.804 103.005 144.374Z" fill="#8ED16F"/>
<path opacity="0.1" d="M103.005 144.374C103.084 143.944 102.454 143.467 101.596 143.307C100.739 143.147 99.9798 143.366 99.9004 143.796C99.821 144.225 100.452 144.703 101.309 144.863C102.166 145.022 102.925 144.804 103.005 144.374Z" fill="black"/>
<path d="M113.9 131.578L112.07 134.973L118.663 138.555L120.494 135.159L113.9 131.578Z" fill="#8ED16F"/>
<path d="M117.645 135.863C117.852 135.478 117.399 134.829 116.632 134.413C115.865 133.996 115.075 133.97 114.868 134.354C114.661 134.739 115.115 135.388 115.881 135.804C116.648 136.221 117.438 136.247 117.645 135.863Z" fill="#8ED16F"/>
<path opacity="0.1" d="M117.645 135.863C117.852 135.478 117.399 134.829 116.632 134.413C115.865 133.996 115.075 133.97 114.868 134.354C114.661 134.739 115.115 135.388 115.881 135.804C116.648 136.221 117.438 136.247 117.645 135.863Z" fill="black"/>
<path d="M109.103 132.885L108.402 136.681L115.773 138.054L116.475 134.258L109.103 132.885Z" fill="#8ED16F"/>
<path opacity="0.05" d="M109.103 132.885L108.402 136.681L115.773 138.054L116.475 134.258L109.103 132.885Z" fill="black"/>
<path d="M113.981 135.807C114.06 135.377 113.43 134.899 112.573 134.74C111.715 134.58 110.956 134.799 110.877 135.228C110.797 135.658 111.428 136.136 112.285 136.295C113.142 136.455 113.902 136.236 113.981 135.807Z" fill="#8ED16F"/>
<path opacity="0.1" d="M113.981 135.807C114.06 135.377 113.43 134.899 112.573 134.74C111.715 134.58 110.956 134.799 110.877 135.228C110.797 135.658 111.428 136.136 112.285 136.295C113.142 136.455 113.902 136.236 113.981 135.807Z" fill="black"/>
<path d="M109.794 135.164L109.092 138.96L116.463 140.332L117.165 136.536L109.794 135.164Z" fill="#8ED16F"/>
<path d="M114.673 138.085C114.753 137.656 114.122 137.178 113.265 137.018C112.408 136.859 111.648 137.078 111.569 137.507C111.489 137.937 112.12 138.415 112.977 138.574C113.834 138.734 114.594 138.515 114.673 138.085Z" fill="#8ED16F"/>
<path opacity="0.1" d="M114.673 138.085C114.753 137.656 114.122 137.178 113.265 137.018C112.408 136.859 111.648 137.078 111.569 137.507C111.489 137.937 112.12 138.415 112.977 138.574C113.834 138.734 114.594 138.515 114.673 138.085Z" fill="black"/>
</g>
<defs>
<linearGradient id="paint0_linear_57_127" x1="95.2831" y1="128.54" x2="95.2831" y2="54.9853" gradientUnits="userSpaceOnUse">
<stop stop-color="#808080" stop-opacity="0.25"/>
<stop offset="0.54" stop-color="#808080" stop-opacity="0.12"/>
<stop offset="1" stop-color="#808080" stop-opacity="0.1"/>
</linearGradient>
<linearGradient id="paint1_linear_57_127" x1="168.729" y1="137.751" x2="168.729" y2="23.3769" gradientUnits="userSpaceOnUse">
<stop stop-color="#808080" stop-opacity="0.25"/>
<stop offset="0.54" stop-color="#808080" stop-opacity="0.12"/>
<stop offset="1" stop-color="#808080" stop-opacity="0.1"/>
</linearGradient>
<clipPath id="clip0_57_127">
<rect width="201" height="148" fill="white"/>
</clipPath>
</defs>
</svg>
